<svg width="203" height="121" viewBox="0 0 203 121" fill="none" xmlns="http://www.w3.org/2000/svg">
<path d="M101 24.8571C106.349 24.8571 111.348 24.3932 115.997 23.4654C120.647 22.5376 124.314 21.1674 127 19.3549V24.8571C127 26.346 125.838 27.7269 123.513 29C121.188 30.2731 118.029 31.2818 114.034 32.0262C110.039 32.7706 105.694 33.1429 101 33.1429C96.3056 33.1429 91.9609 32.7706 87.9661 32.0262C83.9714 31.2818 80.8116 30.2731 78.487 29C76.1623 27.7269 75 26.346 75 24.8571V19.3549C77.6858 21.1674 81.3533 22.5376 86.0026 23.4654C90.6519 24.3932 95.651 24.8571 101 24.8571ZM101 49.7143C106.349 49.7143 111.348 49.2504 115.997 48.3225C120.647 47.3947 124.314 46.0246 127 44.2121V49.7143C127 51.2031 125.838 52.5841 123.513 53.8571C121.188 55.1302 118.029 56.1389 114.034 56.8834C110.039 57.6278 105.694 58 101 58C96.3056 58 91.9609 57.6278 87.9661 56.8834C83.9714 56.1389 80.8116 55.1302 78.487 53.8571C76.1623 52.5841 75 51.2031 75 49.7143V44.2121C77.6858 46.0246 81.3533 47.3947 86.0026 48.3225C90.6519 49.2504 95.651 49.7143 101 49.7143ZM101 37.2857C106.349 37.2857 111.348 36.8218 115.997 35.894C120.647 34.9661 124.314 33.596 127 31.7835V37.2857C127 38.7746 125.838 40.1555 123.513 41.4286C121.188 42.7016 118.029 43.7104 114.034 44.4548C110.039 45.1992 105.694 45.5714 101 45.5714C96.3056 45.5714 91.9609 45.1992 87.9661 44.4548C83.9714 43.7104 80.8116 42.7016 78.487 41.4286C76.1623 40.1555 75 38.7746 75 37.2857V31.7835C77.6858 33.596 81.3533 34.9661 86.0026 35.894C90.6519 36.8218 95.651 37.2857 101 37.2857ZM101 0C105.694 0 110.039 0.37221 114.034 1.11663C118.029 1.86105 121.188 2.86979 123.513 4.14286C125.838 5.41592 127 6.79687 127 8.28571V12.4286C127 13.9174 125.838 15.2984 123.513 16.5714C121.188 17.8445 118.029 18.8532 114.034 19.5977C110.039 20.3421 105.694 20.7143 101 20.7143C96.3056 20.7143 91.9609 20.3421 87.9661 19.5977C83.9714 18.8532 80.8116 17.8445 78.487 16.5714C76.1623 15.2984 75 13.9174 75 12.4286V8.28571C75 6.79687 76.1623 5.41592 78.487 4.14286C80.8116 2.86979 83.9714 1.86105 87.9661 1.11663C91.9609 0.37221 96.3056 0 101 0Z" fill="url(#paint0_linear)"/>
<path d="M2.988 106V81.052H19.008V84.904H7.524V91.06H17.748V94.84H7.524V102.148H19.872V106H2.988ZM30.4178 106.36C29.1218 106.336 28.0418 106.192 27.1778 105.928C26.3378 105.664 25.6658 105.292 25.1618 104.812C24.6578 104.308 24.2978 103.696 24.0818 102.976C23.8898 102.232 23.7938 101.392 23.7938 100.456V78.784L28.1498 78.064V99.628C28.1498 100.156 28.1858 100.6 28.2578 100.96C28.3538 101.32 28.5098 101.632 28.7258 101.896C28.9418 102.136 29.2298 102.328 29.5898 102.472C29.9738 102.592 30.4538 102.688 31.0298 102.76L30.4178 106.36ZM41.1773 102.94C42.5213 102.94 43.5413 102.868 44.2373 102.724V97.9C43.9973 97.828 43.6493 97.756 43.1933 97.684C42.7373 97.612 42.2333 97.576 41.6813 97.576C41.2013 97.576 40.7093 97.612 40.2053 97.684C39.7253 97.756 39.2813 97.888 38.8733 98.08C38.4893 98.272 38.1773 98.548 37.9373 98.908C37.6973 99.244 37.5773 99.676 37.5773 100.204C37.5773 101.236 37.9013 101.956 38.5493 102.364C39.1973 102.748 40.0733 102.94 41.1773 102.94ZM40.8173 86.704C42.2573 86.704 43.4693 86.884 44.4533 87.244C45.4373 87.604 46.2173 88.108 46.7933 88.756C47.3933 89.404 47.8133 90.196 48.0533 91.132C48.3173 92.044 48.4493 93.052 48.4493 94.156V105.568C47.7773 105.712 46.7573 105.88 45.3893 106.072C44.0453 106.288 42.5213 106.396 40.8173 106.396C39.6893 106.396 38.6573 106.288 37.7213 106.072C36.7853 105.856 35.9813 105.508 35.3093 105.028C34.6613 104.548 34.1453 103.924 33.7613 103.156C33.4013 102.388 33.2213 101.44 33.2213 100.312C33.2213 99.232 33.4253 98.32 33.8333 97.576C34.2653 96.832 34.8413 96.232 35.5613 95.776C36.2813 95.296 37.1093 94.96 38.0453 94.768C39.0053 94.552 40.0013 94.444 41.0332 94.444C41.5133 94.444 42.0173 94.48 42.5453 94.552C43.0733 94.6 43.6373 94.696 44.2373 94.84V94.12C44.2373 93.616 44.1773 93.136 44.0573 92.68C43.9373 92.224 43.7213 91.828 43.4093 91.492C43.1213 91.132 42.7253 90.856 42.2213 90.664C41.7413 90.472 41.1293 90.376 40.3853 90.376C39.3773 90.376 38.4533 90.448 37.6133 90.592C36.7733 90.736 36.0893 90.904 35.5613 91.096L35.0213 87.568C35.5733 87.376 36.3773 87.184 37.4333 86.992C38.4893 86.8 39.6173 86.704 40.8173 86.704ZM58.4997 102.868C59.6517 102.868 60.4917 102.736 61.0197 102.472C61.5477 102.184 61.8117 101.704 61.8117 101.032C61.8117 100.408 61.5237 99.892 60.9477 99.484C60.3957 99.076 59.4717 98.632 58.1757 98.152C57.3837 97.864 56.6517 97.564 55.9797 97.252C55.3317 96.916 54.7677 96.532 54.2877 96.1C53.8077 95.668 53.4237 95.152 53.1357 94.552C52.8717 93.928 52.7397 93.172 52.7397 92.284C52.7397 90.556 53.3757 89.2 54.6477 88.216C55.9197 87.208 57.6477 86.704 59.8317 86.704C60.9357 86.704 61.9917 86.812 62.9997 87.028C64.0077 87.22 64.7637 87.412 65.2677 87.604L64.4757 91.132C63.9957 90.916 63.3837 90.724 62.6397 90.556C61.8957 90.364 61.0317 90.268 60.0477 90.268C59.1597 90.268 58.4397 90.424 57.8877 90.736C57.3357 91.024 57.0597 91.48 57.0597 92.104C57.0597 92.416 57.1077 92.692 57.2037 92.932C57.3237 93.172 57.5157 93.4 57.7797 93.616C58.0437 93.808 58.3917 94.012 58.8237 94.228C59.2557 94.42 59.7837 94.624 60.4077 94.84C61.4397 95.224 62.3157 95.608 63.0357 95.992C63.7557 96.352 64.3437 96.772 64.7997 97.252C65.2797 97.708 65.6277 98.236 65.8437 98.836C66.0597 99.436 66.1677 100.156 66.1677 100.996C66.1677 102.796 65.4957 104.164 64.1517 105.1C62.8317 106.012 60.9357 106.468 58.4637 106.468C56.8077 106.468 55.4757 106.324 54.4677 106.036C53.4597 105.772 52.7517 105.556 52.3437 105.388L53.0997 101.752C53.7477 102.016 54.5157 102.268 55.4037 102.508C56.3157 102.748 57.3477 102.868 58.4997 102.868ZM70.0208 82.204L74.3768 81.484V87.172H81.0728V90.808H74.3768V98.476C74.3768 99.988 74.6168 101.068 75.0968 101.716C75.5768 102.364 76.3928 102.688 77.5448 102.688C78.3368 102.688 79.0328 102.604 79.6328 102.436C80.2568 102.268 80.7488 102.112 81.1088 101.968L81.8288 105.424C81.3248 105.64 80.6648 105.856 79.8488 106.072C79.0328 106.312 78.0728 106.432 76.9688 106.432C75.6248 106.432 74.4968 106.252 73.5848 105.892C72.6968 105.532 71.9888 105.016 71.4608 104.344C70.9328 103.648 70.5608 102.82 70.3448 101.86C70.1288 100.876 70.0208 99.76 70.0208 98.512V82.204ZM89.6757 106H85.3197V87.172H89.6757V106ZM90.1437 81.664C90.1437 82.48 89.8797 83.128 89.3517 83.608C88.8237 84.088 88.1997 84.328 87.4797 84.328C86.7357 84.328 86.0997 84.088 85.5717 83.608C85.0437 83.128 84.7797 82.48 84.7797 81.664C84.7797 80.824 85.0437 80.164 85.5717 79.684C86.0997 79.204 86.7357 78.964 87.4797 78.964C88.1997 78.964 88.8237 79.204 89.3517 79.684C89.8797 80.164 90.1437 80.824 90.1437 81.664ZM94.1889 96.604C94.1889 95.212 94.4049 93.916 94.8369 92.716C95.2689 91.492 95.8809 90.436 96.6729 89.548C97.4889 88.66 98.4729 87.964 99.6249 87.46C100.777 86.956 102.073 86.704 103.513 86.704C105.289 86.704 106.969 87.028 108.553 87.676L107.617 91.24C107.113 91.024 106.537 90.844 105.889 90.7C105.265 90.556 104.593 90.484 103.873 90.484C102.169 90.484 100.873 91.024 99.9849 92.104C99.0969 93.16 98.6529 94.66 98.6529 96.604C98.6529 98.476 99.0729 99.964 99.9129 101.068C100.753 102.148 102.169 102.688 104.161 102.688C104.905 102.688 105.637 102.616 106.357 102.472C107.077 102.328 107.701 102.148 108.229 101.932L108.841 105.532C108.361 105.772 107.629 105.988 106.645 106.18C105.685 106.372 104.689 106.468 103.657 106.468C102.049 106.468 100.645 106.228 99.4449 105.748C98.2689 105.244 97.2849 104.56 96.4929 103.696C95.7249 102.808 95.1489 101.764 94.7649 100.564C94.3809 99.34 94.1889 98.02 94.1889 96.604ZM118.477 102.616C120.109 102.616 121.297 102.34 122.041 101.788C122.785 101.236 123.157 100.456 123.157 99.448C123.157 98.848 123.025 98.332 122.761 97.9C122.521 97.468 122.161 97.084 121.681 96.748C121.225 96.388 120.661 96.064 119.989 95.776C119.317 95.464 118.549 95.164 117.685 94.876C116.821 94.564 115.981 94.228 115.165 93.868C114.373 93.484 113.665 93.016 113.041 92.464C112.441 91.912 111.949 91.252 111.565 90.484C111.205 89.716 111.025 88.792 111.025 87.712C111.025 85.456 111.805 83.692 113.365 82.42C114.925 81.124 117.049 80.476 119.737 80.476C121.297 80.476 122.677 80.656 123.877 81.016C125.101 81.352 126.061 81.724 126.757 82.132L125.353 85.804C124.537 85.348 123.637 85 122.653 84.76C121.693 84.52 120.697 84.4 119.665 84.4C118.441 84.4 117.481 84.652 116.785 85.156C116.113 85.66 115.777 86.368 115.777 87.28C115.777 87.832 115.885 88.312 116.101 88.72C116.341 89.104 116.665 89.452 117.073 89.764C117.505 90.076 117.997 90.364 118.549 90.628C119.125 90.892 119.749 91.144 120.421 91.384C121.597 91.816 122.641 92.26 123.553 92.716C124.489 93.148 125.269 93.676 125.893 94.3C126.541 94.9 127.033 95.62 127.369 96.46C127.705 97.276 127.873 98.272 127.873 99.448C127.873 101.704 127.069 103.456 125.461 104.704C123.877 105.928 121.549 106.54 118.477 106.54C117.445 106.54 116.497 106.468 115.633 106.324C114.793 106.204 114.037 106.048 113.365 105.856C112.717 105.664 112.153 105.472 111.673 105.28C111.193 105.064 110.809 104.872 110.521 104.704L111.853 100.996C112.501 101.356 113.377 101.716 114.481 102.076C115.585 102.436 116.917 102.616 118.477 102.616ZM131.655 106V78.784L136.011 78.064V87.388C136.491 87.22 137.043 87.076 137.667 86.956C138.315 86.836 138.951 86.776 139.575 86.776C141.087 86.776 142.335 86.992 143.319 87.424C144.327 87.832 145.131 88.42 145.731 89.188C146.331 89.932 146.751 90.832 146.991 91.888C147.255 92.944 147.387 94.12 147.387 95.416V106H143.031V96.1C143.031 95.092 142.959 94.24 142.815 93.544C142.695 92.824 142.479 92.248 142.167 91.816C141.879 91.36 141.483 91.036 140.979 90.844C140.475 90.628 139.851 90.52 139.107 90.52C138.531 90.52 137.943 90.58 137.343 90.7C136.743 90.82 136.299 90.928 136.011 91.024V106H131.655ZM169.636 96.568C169.636 98.056 169.42 99.412 168.988 100.636C168.556 101.86 167.944 102.904 167.152 103.768C166.36 104.632 165.4 105.304 164.272 105.784C163.168 106.264 161.944 106.504 160.6 106.504C159.256 106.504 158.032 106.264 156.928 105.784C155.824 105.304 154.876 104.632 154.084 103.768C153.292 102.904 152.668 101.86 152.212 100.636C151.78 99.412 151.564 98.056 151.564 96.568C151.564 95.08 151.78 93.736 152.212 92.536C152.668 91.312 153.292 90.268 154.084 89.404C154.9 88.54 155.86 87.88 156.964 87.424C158.068 86.944 159.28 86.704 160.6 86.704C161.92 86.704 163.132 86.944 164.236 87.424C165.364 87.88 166.324 88.54 167.116 89.404C167.908 90.268 168.52 91.312 168.952 92.536C169.408 93.736 169.636 95.08 169.636 96.568ZM165.172 96.568C165.172 94.696 164.764 93.22 163.948 92.14C163.156 91.036 162.04 90.484 160.6 90.484C159.16 90.484 158.032 91.036 157.216 92.14C156.424 93.22 156.028 94.696 156.028 96.568C156.028 98.464 156.424 99.964 157.216 101.068C158.032 102.172 159.16 102.724 160.6 102.724C162.04 102.724 163.156 102.172 163.948 101.068C164.764 99.964 165.172 98.464 165.172 96.568ZM184.969 94.156C184.417 96.268 183.817 98.332 183.169 100.348C182.545 102.34 181.921 104.224 181.297 106H177.733C177.253 104.896 176.749 103.636 176.221 102.22C175.693 100.804 175.165 99.292 174.637 97.684C174.109 96.076 173.581 94.384 173.053 92.608C172.525 90.832 172.009 89.02 171.505 87.172H176.113C176.329 88.18 176.581 89.272 176.869 90.448C177.157 91.6 177.457 92.788 177.769 94.012C178.081 95.212 178.405 96.388 178.741 97.54C179.077 98.692 179.413 99.748 179.749 100.708C180.109 99.604 180.457 98.464 180.793 97.288C181.153 96.112 181.489 94.936 181.801 93.76C182.113 92.584 182.401 91.444 182.665 90.34C182.953 89.212 183.205 88.156 183.421 87.172H186.769C186.985 88.156 187.225 89.212 187.489 90.34C187.753 91.444 188.029 92.584 188.317 93.76C188.629 94.936 188.953 96.112 189.289 97.288C189.649 98.464 190.009 99.604 190.369 100.708C190.681 99.748 191.005 98.692 191.341 97.54C191.677 96.388 192.001 95.212 192.313 94.012C192.649 92.788 192.961 91.6 193.249 90.448C193.537 89.272 193.789 88.18 194.005 87.172H198.505C198.001 89.02 197.485 90.832 196.957 92.608C196.429 94.384 195.901 96.076 195.373 97.684C194.845 99.292 194.317 100.804 193.789 102.22C193.261 103.636 192.745 104.896 192.241 106H188.713C188.089 104.224 187.441 102.34 186.769 100.348C186.121 98.332 185.521 96.268 184.969 94.156Z" fill="white"/>
<defs>
<linearGradient id="paint0_linear" x1="100.804" y1="2.77674" x2="100.804" y2="41.9982" gradientUnits="userSpaceOnUse">
<stop stop-color="white" stop-opacity="0"/>
<stop offset="1" stop-color="white"/>
</linearGradient>
</defs>
</svg>
